<svg width="234" height="77" viewBox="0 0 234 77" fill="none" xmlns="http://www.w3.org/2000/svg">
<path d="M43 12H201.5C219.449 12 234 26.5507 234 44.5V44.5C234 62.4493 219.449 77 201.5 77H43V12Z" fill="#FFB83B"/>
<path d="M113.299 51.4697H122.63V55H108.904V33.6719H113.299V51.4697ZM134.07 55C133.875 54.6191 133.733 54.1455 133.646 53.5791C132.62 54.7217 131.287 55.293 129.646 55.293C128.094 55.293 126.805 54.8438 125.779 53.9453C124.764 53.0469 124.256 51.9141 124.256 50.5469C124.256 48.8672 124.876 47.5781 126.116 46.6797C127.366 45.7812 129.168 45.3271 131.521 45.3174H133.47V44.4092C133.47 43.6768 133.279 43.0908 132.898 42.6514C132.527 42.2119 131.937 41.9922 131.126 41.9922C130.413 41.9922 129.852 42.1631 129.441 42.5049C129.041 42.8467 128.841 43.3154 128.841 43.9111H124.607C124.607 42.9932 124.891 42.1436 125.457 41.3623C126.023 40.5811 126.824 39.9707 127.859 39.5312C128.895 39.082 130.057 38.8574 131.346 38.8574C133.299 38.8574 134.847 39.3506 135.989 40.3369C137.142 41.3135 137.718 42.6904 137.718 44.4678V51.3379C137.728 52.8418 137.938 53.9795 138.348 54.751V55H134.07ZM130.569 52.0557C131.194 52.0557 131.771 51.9189 132.298 51.6455C132.825 51.3623 133.216 50.9863 133.47 50.5176V47.793H131.888C129.769 47.793 128.641 48.5254 128.504 49.9902L128.489 50.2393C128.489 50.7666 128.675 51.2012 129.046 51.543C129.417 51.8848 129.925 52.0557 130.569 52.0557ZM155.237 47.2217C155.237 49.6631 154.681 51.6211 153.567 53.0957C152.464 54.5605 150.97 55.293 149.085 55.293C147.483 55.293 146.189 54.7363 145.203 53.623V61.0938H140.97V39.1504H144.896L145.042 40.7031C146.067 39.4727 147.405 38.8574 149.056 38.8574C151.009 38.8574 152.527 39.5801 153.611 41.0254C154.695 42.4707 155.237 44.4629 155.237 47.002V47.2217ZM151.004 46.9141C151.004 45.4395 150.74 44.3018 150.213 43.501C149.695 42.7002 148.938 42.2998 147.942 42.2998C146.614 42.2998 145.701 42.8076 145.203 43.8232V50.3125C145.721 51.3574 146.644 51.8799 147.972 51.8799C149.993 51.8799 151.004 50.2246 151.004 46.9141ZM157.215 46.9287C157.215 45.3564 157.518 43.9551 158.123 42.7246C158.729 41.4941 159.598 40.542 160.73 39.8682C161.873 39.1943 163.196 38.8574 164.7 38.8574C166.839 38.8574 168.582 39.5117 169.93 40.8203C171.287 42.1289 172.044 43.9062 172.2 46.1523L172.229 47.2363C172.229 49.668 171.551 51.6211 170.193 53.0957C168.836 54.5605 167.015 55.293 164.729 55.293C162.444 55.293 160.618 54.5605 159.251 53.0957C157.894 51.6309 157.215 49.6387 157.215 47.1191V46.9287ZM161.448 47.2363C161.448 48.7402 161.731 49.8926 162.298 50.6934C162.864 51.4844 163.675 51.8799 164.729 51.8799C165.755 51.8799 166.556 51.4893 167.132 50.708C167.708 49.917 167.996 48.6572 167.996 46.9287C167.996 45.4541 167.708 44.3115 167.132 43.501C166.556 42.6904 165.745 42.2852 164.7 42.2852C163.665 42.2852 162.864 42.6904 162.298 43.501C161.731 44.3018 161.448 45.5469 161.448 47.2363ZM183.743 43.1201C183.167 43.042 182.659 43.0029 182.22 43.0029C180.618 43.0029 179.568 43.5449 179.07 44.6289V55H174.837V39.1504H178.836L178.953 41.04C179.803 39.585 180.979 38.8574 182.483 38.8574C182.952 38.8574 183.392 38.9209 183.802 39.0479L183.743 43.1201Z" fill="white"/>
<path d="M0 10C0 4.47715 4.47715 0 10 0H67C72.5228 0 77 4.47715 77 10V67C77 72.5228 72.5228 77 67 77H10C4.47715 77 0 72.5228 0 67V10Z" fill="#FFB83B"/>
<path d="M54.5918 41.6582V35.3418H41.6582V22.4082H35.3418V35.3418H22.4082V41.6582H35.3418V54.5918H41.6582V41.6582H54.5918ZM60.9082 9.625C62.6126 9.625 64.1165 10.2767 65.4199 11.5801C66.7233 12.8835 67.375 14.3874 67.375 16.0918V60.9082C67.375 62.6126 66.7233 64.1165 65.4199 65.4199C64.1165 66.7233 62.6126 67.375 60.9082 67.375H16.0918C14.2871 67.375 12.7331 66.7233 11.4297 65.4199C10.2266 64.1165 9.625 62.6126 9.625 60.9082V16.0918C9.625 14.3874 10.2266 12.8835 11.4297 11.5801C12.7331 10.2767 14.2871 9.625 16.0918 9.625H60.9082Z" fill="white"/>
</svg>
